<?xml version="1.0" encoding="UTF-8" standalone="no"?>
<svg width="197px" height="82px" viewBox="0 0 197 82" version="1.1" xmlns="http://www.w3.org/2000/svg" xmlns:xlink="http://www.w3.org/1999/xlink">
    <!-- Generator: Sketch 41.2 (35397) - http://www.bohemiancoding.com/sketch -->
    <title>Shape</title>
    <desc>Created with Sketch.</desc>
    <defs></defs>
    <g id="Page-1" stroke="none" stroke-width="1" fill="none" fill-rule="evenodd">
        <g id="HBOLogo" fill="#FFFFFF">
            <g id="Group">
                <path d="M62,16.8422508 L41.8955211,16.8422508 L41.8955211,81.3 L20.4106385,81.3 L20.4106385,16.8422508 L0,16.8422508 L0,1.29999995 L62,1.29999995 L62,16.8422508 Z M156.412,81 C178.624,80.991 196.699,62.536 196.694,40.321 C196.69,17.637 178.624,0.017 156.412,0 C134.226,-0.016 122.89,16.315 120.089,22.907 C120.115,13.012 110.362,1.331 98.953,1.319 L62.197,1.319 L62.197,80.6 L96.466,80.612 C110.283,80.612 120.114,68.64 120.132,58.374 C123.286,64.835 134.226,81.008 156.412,81 Z M93.595,48.741 C96.766,48.741 99.264,51.873 99.264,55.44 C99.264,59.008 96.766,62.139 93.595,62.139 L82.695,62.139 L82.695,48.741 L93.595,48.741 Z M93.635,18.971 C96.806,18.971 99.304,22.102 99.304,25.67 C99.304,29.238 96.806,32.37 93.635,32.37 L82.734,32.37 L82.734,18.971 L93.635,18.971 Z M108.143,40.337 C110.64,40.02 114.803,37.166 116.27,35.342 C115.754,37.602 115.715,44.142 116.317,46.402 C114.644,43.826 110.68,40.654 108.143,40.337 Z M132,39.9999883 C132,26.745405 142.744494,15.9999883 155.999405,15.9999883 C169.254317,15.9999883 180,26.745405 180,39.9999883 C180,53.2557607 169.254317,63.9999883 155.999405,63.9999883 C142.744494,63.9999883 132,53.2557607 132,39.9999883 Z M156,58.9999883 C166.493413,58.9999883 175,50.494599 175,39.9999883 C175,29.5065751 166.493413,20.9999883 156,20.9999883 C145.506587,20.9999883 137,29.5065751 137,39.9999883 C137,50.494599 145.506587,58.9999883 156,58.9999883 Z" id="Shape"></path>
            </g>
        </g>
    </g>
</svg>